# xmcd
#
# Track frame offsets:
#	150
#	13537
#	24441
#	41603
#	52390
#	66115
#	80282
#	91476
#	107508
#	118078
#	132495
#	147846
#
# Disc length: 2141 seconds
#
# Revision: 0
# Processed by: cddbd v1.4PL0 Copyright (c) Steve Scherf et al.
# Submitted via: OrangeCD 4.1
#
DISCID=a2085b0c
DTITLE=Alison Krauss  - I've Got That Old Feeling
DYEAR=1900
DGENRE=
TTITLE0=I've Got That Old Feeling
TTITLE1=Dark Skies
TTITLE2=Wish I Hade You
TTITLE3=Endless Highway
TTITLE4=Winter of a Broken Heart
TTITLE5=It's Over
TTITLE6=Will You Be Leaving
TTITLE7=Steel Rails
TTITLE8=Tonight I'll Be Lonely too
TTITLE9=One Good Reason
TTITLE10=That Makes One Of Us
TTITLE11=Longest Highway
EXTD=
EXTT0=
EXTT1=
EXTT2=
EXTT3=
EXTT4=
EXTT5=
EXTT6=
EXTT7=
EXTT8=
EXTT9=
EXTT10=
EXTT11=
PLAYORDER=
